<svg width="26" height="26" viewBox="0 0 26 26" fill="none" xmlns="http://www.w3.org/2000/svg">
<path fill-rule="evenodd" clip-rule="evenodd" d="M0 13C0 5.82032 5.82032 0 13 0C20.1797 0 26 5.82032 26 13C26 20.1797 20.1797 26 13 26C5.82032 26 0 20.1797 0 13ZM13.0007 6.06667C11.1177 6.06667 10.8813 6.0749 10.1418 6.10854C9.40366 6.14234 8.89985 6.25923 8.45899 6.43067C8.00296 6.60774 7.61616 6.84466 7.23076 7.23017C6.8451 7.61556 6.60817 8.00237 6.4305 8.45823C6.25863 8.89926 6.14163 9.40323 6.10843 10.141C6.07533 10.8806 6.06667 11.1171 6.06667 13.0001C6.06667 14.8831 6.07506 15.1187 6.10854 15.8582C6.1425 16.5963 6.25934 17.1001 6.43067 17.541C6.6079 17.997 6.84477 18.3838 7.23033 18.7692C7.61556 19.1549 8.00237 19.3924 8.45813 19.5695C8.89926 19.7409 9.40323 19.8578 10.1412 19.8916C10.8808 19.9253 11.117 19.9335 12.9998 19.9335C14.8829 19.9335 15.1185 19.9253 15.8581 19.8916C16.5962 19.8578 17.1006 19.7409 17.5418 19.5695C17.9976 19.3924 18.3838 19.1549 18.7691 18.7692C19.1547 18.3838 19.3917 17.997 19.5693 17.5412C19.7398 17.1001 19.8568 16.5962 19.8915 15.8584C19.9247 15.1188 19.9333 14.8831 19.9333 13.0001C19.9333 11.1171 19.9247 10.8808 19.8915 10.1412C19.8568 9.40306 19.7398 8.89926 19.5693 8.4584C19.3917 8.00237 19.1547 7.61556 18.7691 7.23017C18.3834 6.8445 17.9977 6.60763 17.5413 6.43067C17.0993 6.25923 16.5952 6.14234 15.8571 6.10854C15.1175 6.0749 14.8821 6.06667 12.9985 6.06667H13.0007Z" fill="black"/>
<path fill-rule="evenodd" clip-rule="evenodd" d="M12.3786 7.31619C12.5632 7.31592 12.7692 7.31619 13.0006 7.31619C14.8518 7.31619 15.0712 7.32285 15.8022 7.35605C16.4782 7.38698 16.8452 7.49992 17.0896 7.59482C17.4131 7.72049 17.6438 7.87069 17.8863 8.11336C18.129 8.35602 18.2792 8.58715 18.4052 8.91075C18.5001 9.15482 18.6132 9.52174 18.6439 10.1977C18.6771 10.9286 18.6844 11.1482 18.6844 12.9985C18.6844 14.8489 18.6771 15.0685 18.6439 15.7993C18.613 16.4753 18.5001 16.8423 18.4052 17.0863C18.2795 17.4099 18.129 17.6403 17.8863 17.8829C17.6436 18.1255 17.4133 18.2757 17.0896 18.4014C16.8454 18.4967 16.4782 18.6094 15.8022 18.6403C15.0714 18.6735 14.8518 18.6807 13.0006 18.6807C11.1492 18.6807 10.9298 18.6735 10.1989 18.6403C9.52291 18.6091 9.15599 18.4961 8.91148 18.4012C8.58789 18.2756 8.35676 18.1254 8.11409 17.8827C7.87143 17.64 7.72122 17.4095 7.59528 17.0858C7.50038 16.8417 7.38728 16.4748 7.35652 15.7988C7.32326 15.0679 7.31665 14.8483 7.31665 12.9968C7.31665 11.1453 7.32326 10.9269 7.35652 10.196C7.38739 9.52001 7.50038 9.15309 7.59528 8.90869C7.72095 8.58515 7.87143 8.35402 8.11409 8.11135C8.35676 7.86869 8.58789 7.71848 8.91148 7.59249C9.15588 7.49716 9.52291 7.38449 10.1989 7.35345C10.8385 7.32458 11.0864 7.31592 12.3786 7.31445V7.31619ZM16.7016 8.46739C16.2422 8.46739 15.8696 8.83968 15.8696 9.29912C15.8696 9.75845 16.2422 10.1311 16.7016 10.1311C17.1609 10.1311 17.5336 9.75845 17.5336 9.29912C17.5336 8.83979 17.1609 8.46739 16.7016 8.46739ZM13.0006 9.43952C11.0342 9.43952 9.43998 11.0338 9.43998 13.0001C9.43998 14.9665 11.0342 16.56 13.0006 16.56C14.9669 16.56 16.5606 14.9665 16.5606 13.0001C16.5606 11.0338 14.9669 9.43952 13.0006 9.43952Z" fill="black"/>
<path fill-rule="evenodd" clip-rule="evenodd" d="M13.0006 10.689C14.2769 10.689 15.3117 11.7237 15.3117 13.0001C15.3117 14.2764 14.2769 15.3112 13.0006 15.3112C11.7241 15.3112 10.6895 14.2764 10.6895 13.0001C10.6895 11.7237 11.7241 10.689 13.0006 10.689Z" fill="black"/>
</svg>
