<svg width="26" height="26" viewBox="0 0 26 26" fill="none" xmlns="http://www.w3.org/2000/svg">
<path fill-rule="evenodd" clip-rule="evenodd" d="M0 13C0 5.82032 5.82032 0 13 0C20.1797 0 26 5.82032 26 13C26 20.1797 20.1797 26 13 26C5.82032 26 0 20.1797 0 13ZM12.6107 10.5666L12.638 11.0164L12.1833 10.9613C10.5283 10.7502 9.0825 10.0341 7.85487 8.8315L7.25476 8.2348L7.10017 8.67544C6.77278 9.6577 6.98192 10.6951 7.66393 11.3928C8.02766 11.7783 7.94582 11.8334 7.3184 11.6039C7.10017 11.5305 6.90918 11.4754 6.89103 11.5029C6.82738 11.5672 7.04562 12.4026 7.21836 12.7331C7.4548 13.1921 7.93672 13.6419 8.46414 13.9082L8.90971 14.1193L8.38229 14.1285C7.87307 14.1285 7.85487 14.1377 7.90947 14.3304C8.09131 14.9271 8.80967 15.5606 9.60987 15.836L10.1737 16.0288L9.68262 16.3225C8.95516 16.7448 8.10041 16.9835 7.24566 17.0019C6.83643 17.011 6.5 17.0478 6.5 17.0753C6.5 17.1671 7.60939 17.6812 8.255 17.8832C10.1918 18.4799 12.4925 18.2229 14.2202 17.2038C15.4477 16.4786 16.6753 15.0373 17.2482 13.6419C17.5574 12.8983 17.8666 11.5397 17.8666 10.8879C17.8666 10.4656 17.8938 10.4105 18.403 9.90557C18.7031 9.61182 18.985 9.2905 19.0396 9.19869C19.1305 9.02428 19.1214 9.02428 18.6577 9.18033C17.8848 9.45577 17.7756 9.41904 18.1575 9.00591C18.4394 8.71217 18.7758 8.17971 18.7758 8.02365C18.7758 7.99608 18.6395 8.04202 18.4849 8.12462C18.3212 8.21643 17.9575 8.35413 17.6847 8.43678L17.1936 8.59284L16.7481 8.28988C16.5026 8.12462 16.157 7.94105 15.9752 7.88596C15.5114 7.75743 14.8021 7.77579 14.3839 7.92269C13.2472 8.33576 12.5288 9.40068 12.6107 10.5666Z" fill="black"/>
</svg>
