<svg width="30" height="28" viewBox="0 0 30 28" fill="none" xmlns="http://www.w3.org/2000/svg">
<path fill-rule="evenodd" clip-rule="evenodd" d="M15 0.330811C9.49388 0.330811 5.02856 4.49734 5.02856 9.63753C5.02856 13.7494 7.8856 17.238 11.8477 18.4685C12.346 18.5547 12.529 18.2666 12.529 18.0207C12.529 17.7989 12.5197 17.0656 12.5154 16.2882C9.74114 16.851 9.15591 15.1901 9.15591 15.1901C8.70239 14.1142 8.04872 13.8281 8.04872 13.8281C7.14403 13.2506 8.11669 13.2624 8.11669 13.2624C9.11817 13.3281 9.64552 14.2217 9.64552 14.2217C10.5347 15.6444 11.9783 15.2329 12.5471 14.9952C12.6368 14.3936 12.8951 13.9828 13.1804 13.7505C10.9655 13.5153 8.63724 12.7171 8.63724 9.15103C8.63724 8.13493 9.02677 7.30478 9.66474 6.6529C9.56114 6.4184 9.21989 5.47165 9.7613 4.18978C9.7613 4.18978 10.5985 3.93997 12.5035 5.14419C13.2992 4.9379 14.1523 4.83444 14.9996 4.83094C15.8471 4.83465 16.7007 4.93812 17.4975 5.14419C19.4007 3.94019 20.2369 4.19 20.2369 4.19C20.7797 5.47187 20.4385 6.4184 20.3349 6.65312C20.9743 7.30456 21.361 8.13493 21.361 9.15125C21.361 12.7256 19.0283 13.5127 16.8078 13.7428C17.1654 14.0316 17.4842 14.5981 17.4842 15.4666C17.4842 16.7117 17.4729 17.7138 17.4729 18.0202C17.4729 18.2674 17.6525 18.5579 18.1578 18.4665C22.1178 17.2345 24.9711 13.7472 24.9711 9.63665C24.9715 4.49756 20.5072 0.330811 15 0.330811Z" fill="#181616"/>
<path d="M8.80563 13.6929C8.78336 13.7392 8.70531 13.753 8.63453 13.7213C8.56188 13.6907 8.52156 13.6279 8.545 13.5813C8.5661 13.534 8.64438 13.5207 8.7168 13.5524C8.78946 13.583 8.83071 13.6465 8.80586 13.6929H8.80563ZM9.20946 14.1137C9.16188 14.1546 9.06883 14.1356 9.00555 14.0704C8.94039 14.0055 8.92821 13.9186 8.97649 13.877C9.02524 13.8359 9.11547 13.8552 9.18039 13.9201C9.24602 13.9858 9.25891 14.0717 9.20922 14.1135L9.20946 14.1137ZM9.6025 14.6492C9.54157 14.689 9.44149 14.6519 9.37985 14.569C9.31844 14.4865 9.31844 14.3874 9.38102 14.3474C9.44289 14.3075 9.54133 14.3434 9.60367 14.4255C9.66508 14.5097 9.66508 14.6092 9.6025 14.6495V14.6492ZM10.1411 15.1672C10.0865 15.2235 9.97 15.2084 9.88492 15.1316C9.79774 15.0565 9.7736 14.95 9.82821 14.8938C9.88375 14.8376 10.0007 14.8533 10.0865 14.9295C10.1732 15.0043 10.1995 15.111 10.1411 15.167V15.1672ZM10.8845 15.4678C10.8602 15.5409 10.7481 15.5739 10.6352 15.543C10.5222 15.5111 10.4486 15.4258 10.4711 15.3523C10.4945 15.2788 10.6075 15.2445 10.7212 15.2775C10.8337 15.309 10.9075 15.3934 10.8843 15.4678H10.8845ZM11.7002 15.5236C11.7032 15.6001 11.6073 15.664 11.4888 15.6653C11.3697 15.668 11.2731 15.6058 11.2717 15.5301C11.2717 15.4527 11.3655 15.3897 11.4845 15.388C11.6031 15.3858 11.7002 15.4475 11.7002 15.5236ZM12.4595 15.403C12.4736 15.4779 12.3916 15.5549 12.2737 15.5752C12.1579 15.5953 12.051 15.549 12.036 15.4746C12.022 15.398 12.1056 15.3215 12.2212 15.3013C12.3391 15.2821 12.4445 15.3271 12.4595 15.4033V15.403Z" fill="#181616"/>
<path d="M5.82542 23.6912H3.31761C3.28653 23.6912 3.25672 23.7027 3.23474 23.7232C3.21277 23.7437 3.20042 23.7715 3.20042 23.8005V24.945C3.20042 24.9741 3.21277 25.0019 3.23474 25.0224C3.25672 25.0429 3.28653 25.0544 3.31761 25.0544H4.29565V26.4763C4.29565 26.4763 4.07604 26.5463 3.46831 26.5463C2.75206 26.5463 1.75104 26.3022 1.75104 24.2477C1.75104 22.193 2.79354 21.9224 3.77229 21.9224C4.61933 21.9224 4.98401 22.0615 5.21651 22.1286C5.28917 22.1492 5.35714 22.0814 5.35714 22.021L5.63675 20.9152C5.6372 20.8987 5.63334 20.8823 5.6255 20.8674C5.61767 20.8525 5.60608 20.8397 5.59175 20.8299C5.4973 20.7669 4.92214 20.4668 3.46878 20.4668C1.7944 20.4668 0.0769043 21.1314 0.0769043 24.3277C0.0769043 27.5237 2.04331 27.9999 3.70034 27.9999C5.07237 27.9999 5.90464 27.4526 5.90464 27.4526C5.93886 27.4351 5.94261 27.3902 5.94261 27.3695V23.8003C5.94261 23.7713 5.93026 23.7435 5.90828 23.723C5.88631 23.7025 5.8565 23.691 5.82542 23.691V23.6912ZM18.6342 20.7398H17.2219C17.2065 20.7399 17.1912 20.7427 17.177 20.7483C17.1628 20.7539 17.1499 20.762 17.1391 20.7722C17.1283 20.7824 17.1197 20.7946 17.1139 20.8079C17.108 20.8212 17.1051 20.8354 17.1052 20.8498L17.1057 23.397H14.9044V20.8498C14.9045 20.8355 14.9016 20.8212 14.8958 20.8079C14.89 20.7946 14.8814 20.7825 14.8706 20.7723C14.8598 20.7621 14.8469 20.7539 14.8327 20.7484C14.8185 20.7428 14.8033 20.7399 14.7879 20.7398H13.3758C13.3604 20.7399 13.3452 20.7427 13.3309 20.7483C13.3167 20.7539 13.3038 20.762 13.293 20.7722C13.2822 20.7824 13.2736 20.7946 13.2678 20.8079C13.2619 20.8212 13.259 20.8354 13.2591 20.8498V27.747C13.2591 27.8076 13.3116 27.857 13.3758 27.857H14.7879C14.8033 27.857 14.8186 27.854 14.8328 27.8485C14.847 27.8429 14.8598 27.8347 14.8707 27.8245C14.8815 27.8142 14.89 27.8021 14.8958 27.7888C14.9016 27.7754 14.9045 27.7612 14.9044 27.7468V24.7967H17.1057L17.1019 27.7468C17.1019 27.8076 17.1544 27.857 17.2191 27.857H18.6342C18.6497 27.857 18.6649 27.854 18.6791 27.8485C18.6933 27.8429 18.7062 27.8347 18.717 27.8245C18.7278 27.8142 18.7364 27.8021 18.7421 27.7888C18.7479 27.7754 18.7509 27.7612 18.7507 27.7468V20.8496C18.7507 20.7888 18.6992 20.7398 18.6342 20.7398V20.7398ZM7.57972 20.8966C7.07722 20.8966 6.6694 21.2801 6.6694 21.7548C6.6694 22.2288 7.07722 22.6134 7.57972 22.6134C8.08269 22.6134 8.49026 22.2288 8.49026 21.7548C8.49026 21.2801 8.08245 20.8966 7.57972 20.8966ZM8.27253 22.9984H6.86487C6.80019 22.9984 6.74253 23.0605 6.74253 23.1209V27.6823C6.74253 27.8164 6.83206 27.8562 6.94784 27.8562H8.21581C8.35526 27.8562 8.38925 27.7923 8.38925 27.6801V26.2919V23.1084C8.38931 23.0941 8.38634 23.0798 8.38051 23.0665C8.37468 23.0532 8.36609 23.0412 8.35526 23.031C8.34442 23.0208 8.33153 23.0127 8.31734 23.0071C8.30315 23.0016 8.28792 22.9987 8.27253 22.9986V22.9984ZM24.1177 23.0087H22.7161C22.7007 23.0088 22.6855 23.0117 22.6713 23.0173C22.6572 23.0229 22.6443 23.0311 22.6335 23.0413C22.6227 23.0516 22.6142 23.0637 22.6084 23.077C22.6027 23.0903 22.5997 23.1046 22.5999 23.1189V26.5008C22.5999 26.5008 22.2436 26.7436 21.7385 26.7436C21.2335 26.7436 21.0994 26.5299 21.0994 26.0681V23.1189C21.0995 23.1045 21.0966 23.0903 21.0908 23.077C21.085 23.0636 21.0765 23.0515 21.0657 23.0412C21.0548 23.031 21.042 23.0229 21.0278 23.0173C21.0136 23.0117 20.9983 23.0088 20.9829 23.0087H19.5607C19.5296 23.0089 19.4999 23.0206 19.478 23.0413C19.4561 23.062 19.4439 23.0899 19.444 23.1189V26.2912C19.444 27.6628 20.2632 27.9984 21.3898 27.9984C22.3142 27.9984 23.0595 27.5215 23.0595 27.5215C23.0595 27.5215 23.0946 27.773 23.111 27.8026C23.1275 27.8323 23.1689 27.8623 23.2142 27.8623L24.1189 27.8586C24.1343 27.8585 24.1496 27.8556 24.1638 27.8501C24.1781 27.8445 24.191 27.8363 24.2019 27.8261C24.2128 27.8159 24.2214 27.8037 24.2273 27.7904C24.2331 27.777 24.2361 27.7627 24.236 27.7483L24.2353 23.1183C24.2352 23.0893 24.2228 23.0615 24.2009 23.0409C24.179 23.0203 24.1492 23.0087 24.1182 23.0085L24.1177 23.0087ZM27.9478 22.8538C27.1519 22.8538 26.6105 23.1852 26.6105 23.1852V20.8496C26.6106 20.8352 26.6077 20.821 26.6018 20.8077C26.596 20.7944 26.5875 20.7823 26.5767 20.7721C26.5659 20.7619 26.553 20.7537 26.5388 20.7482C26.5246 20.7426 26.5094 20.7397 26.494 20.7396H25.0782C25.0627 20.7396 25.0474 20.7424 25.0331 20.748C25.0189 20.7535 25.0059 20.7616 24.995 20.7718C24.9841 20.7821 24.9755 20.7942 24.9697 20.8076C24.9638 20.8209 24.9609 20.8352 24.961 20.8496V27.7468C24.9609 27.7612 24.9638 27.7755 24.9697 27.7889C24.9755 27.8022 24.9841 27.8143 24.995 27.8246C25.0059 27.8348 25.0189 27.8429 25.0331 27.8484C25.0474 27.854 25.0627 27.8568 25.0782 27.8568H26.0607C26.1052 27.8568 26.1385 27.8356 26.1631 27.7982C26.1872 27.761 26.2226 27.4801 26.2226 27.4801C26.2226 27.4801 26.8015 27.992 27.8979 27.992C29.1846 27.992 29.9229 27.383 29.9229 25.2572C29.9229 23.1314 28.744 22.8536 27.9476 22.8536L27.9478 22.8538ZM27.3947 26.7397C26.9089 26.7259 26.5791 26.52 26.5791 26.52V24.3358C26.5791 24.3358 26.9044 24.1499 27.3033 24.1162C27.8079 24.074 28.2942 24.2164 28.2942 25.3399C28.2942 26.5249 28.0751 26.7587 27.395 26.7395L27.3947 26.7397ZM12.4676 26.7139C12.406 26.7139 12.248 26.7373 12.0856 26.7373C11.5653 26.7373 11.3888 26.5115 11.3888 26.2193V24.2798H12.4482C12.4636 24.2798 12.4789 24.277 12.4932 24.2714C12.5075 24.2659 12.5205 24.2577 12.5314 24.2475C12.5422 24.2372 12.5509 24.2251 12.5567 24.2117C12.5625 24.1983 12.5655 24.184 12.5653 24.1696V23.1073C12.5654 23.0929 12.5624 23.0787 12.5566 23.0653C12.5507 23.052 12.5421 23.0399 12.5312 23.0297C12.5203 23.0195 12.5074 23.0114 12.4931 23.0059C12.4789 23.0004 12.4636 22.9975 12.4482 22.9975H11.3888L11.3871 21.6916C11.3871 21.6419 11.36 21.6172 11.2985 21.6172H9.8548C9.79901 21.6172 9.76878 21.6404 9.76878 21.6905V23.0402C9.76878 23.0402 9.04526 23.2031 8.99651 23.2163C8.97217 23.2229 8.95079 23.2367 8.93558 23.2556C8.92036 23.2746 8.91214 23.2976 8.91214 23.3213V24.1694C8.91205 24.1837 8.91499 24.198 8.92079 24.2113C8.92659 24.2246 8.93515 24.2367 8.94596 24.2469C8.95678 24.2571 8.96965 24.2652 8.98383 24.2708C8.99801 24.2764 9.01323 24.2793 9.02862 24.2794H9.76878V26.3199C9.76878 27.8358 10.9078 27.9846 11.6766 27.9846C12.0275 27.9846 12.4477 27.8796 12.5171 27.8555C12.5592 27.8409 12.5834 27.8004 12.5834 27.7564L12.5843 26.8235C12.5838 26.7945 12.5714 26.7669 12.5495 26.7465C12.5276 26.726 12.4981 26.7142 12.4671 26.7136L12.4676 26.7139Z" fill="#100E0F"/>
</svg>
