<svg width="26" height="26" viewBox="0 0 26 26" fill="none" xmlns="http://www.w3.org/2000/svg">
<path fill-rule="evenodd" clip-rule="evenodd" d="M0 13C0 5.82032 5.82032 0 13 0C20.1797 0 26 5.82032 26 13C26 20.1797 20.1797 26 13 26C5.82032 26 0 20.1797 0 13ZM9.18694 10.7671H6.24087V19.619H9.18694V10.7671ZM9.38102 8.02896C9.3619 7.16105 8.74125 6.5 7.73338 6.5C6.72555 6.5 6.06667 7.16105 6.06667 8.02896C6.06667 8.87889 6.7061 9.55895 7.69513 9.55895H7.71398C8.74125 9.55895 9.38102 8.87889 9.38102 8.02896ZM19.8117 14.5436C19.8117 11.8247 18.3583 10.5593 16.4196 10.5593C14.8554 10.5593 14.1552 11.4184 13.7641 12.0212V10.7674H10.8177C10.8565 11.598 10.8177 19.6192 10.8177 19.6192H13.7641V14.6756C13.7641 14.411 13.7833 14.1471 13.8611 13.9577C14.0741 13.4292 14.5589 12.882 15.3728 12.882C16.4393 12.882 16.8656 13.6937 16.8656 14.8832V19.619H19.8116L19.8117 14.5436Z" fill="black"/>
</svg>
